<svg width="39" height="39" viewBox="0 0 39 39" fill="none" xmlns="http://www.w3.org/2000/svg">
<path fill-rule="evenodd" clip-rule="evenodd" d="M17.403 29.5343L11 26.3177L33.5027 15L37.5139 17.0149C39.4954 18.0103 39.4954 20.8784 37.5139 21.8738L22.2645 29.5343C20.7334 30.3033 18.9339 30.3033 17.403 29.5343ZM17.403 38.4232L11 35.2066L33.5027 23.8889L37.5139 25.9039C39.4954 26.8992 39.4954 29.7673 37.5139 30.7627L22.2645 38.4232C20.7334 39.1923 18.9339 39.1923 17.403 38.4232Z" fill="#909090" fill-opacity="0.4"/>
<path fill-rule="evenodd" clip-rule="evenodd" d="M18.5931 3.75601C19.1632 3.47528 19.8368 3.47528 20.4069 3.75601L34.3817 10.6364L20.4069 17.5167C19.8368 17.7975 19.1632 17.7975 18.5931 17.5167L4.61827 10.6364L18.5931 3.75601ZM21.9731 0.575163C20.4154 -0.19172 18.5846 -0.191722 17.0269 0.575163L1.51194 8.2139C-0.503973 9.20641 -0.503986 12.0663 1.51194 13.0589L17.0269 20.6975C18.5846 21.4646 20.4154 21.4646 21.9731 20.6977L37.488 13.0589C39.504 12.0664 39.504 9.20643 37.488 8.2139L21.9731 0.575163ZM33.407 23.9319L29.3936 25.9078L34.3817 28.3637L20.4069 35.244C19.8368 35.5248 19.1632 35.5248 18.5931 35.244L4.61827 28.3637L9.60636 25.9078L5.59303 23.9319L1.51194 25.9411C-0.503975 26.9336 -0.503986 29.7936 1.51194 30.7861L17.0269 38.4248C18.5846 39.1917 20.4154 39.1917 21.9731 38.4248L37.488 30.7861C39.504 29.7936 39.504 26.9336 37.488 25.9411L33.407 23.9319Z" fill="#435723"/>
<path d="M5.59296 15L1.51194 17.0001C-0.503975 17.9882 -0.503986 20.8352 1.51194 21.8233L17.0269 29.4274C18.5846 30.1909 20.4154 30.1909 21.9731 29.4274L37.488 21.8233C39.504 20.8352 39.504 17.9882 37.488 17.0001L33.407 15L29.3938 16.967L34.3817 19.4118L20.4069 26.261C19.8368 26.5405 19.1632 26.5405 18.5931 26.261L4.61827 19.4118L9.60629 16.967L5.59296 15Z" fill="#7B131E"/>
</svg>
